RobotoAvar2-XTSP100.ufo
<glyph name="equal" format="2">
  <advance width="1274"/>
  <unicode hex="003D"/>
  <outline>
    <contour>
      <point x="182" y="381" type="line"/>
      <point x="182" y="550" type="line"/>
      <point x="1092" y="550" type="line"/>
      <point x="1092" y="381" type="line"/>
    </contour>
    <contour>
      <point x="182" y="776" type="line"/>
      <point x="182" y="945" type="line"/>
      <point x="1092" y="945" type="line"/>
      <point x="1092" y="776" type="line"/>
    </contour>
  </outline>
</glyph>
<glyph name="E" format="2">
  <advance width="1412"/>
  <unicode hex="0045"/>
  <anchor x="755" y="0" name="bottom"/>
  <anchor x="1219" y="0" name="ogonek"/>
  <anchor x="770" y="1456" name="top"/>
  <anchor x="50" y="1074" name="tonos"/>
  <outline>
    <contour>
      <point x="295" y="0" type="line"/>
      <point x="295" y="1456" type="line"/>
      <point x="1209" y="1456" type="line"/>
      <point x="1209" y="1298" type="line"/>
      <point x="487" y="1298" type="line"/>
      <point x="487" y="158" type="line"/>
      <point x="1219" y="158" type="line"/>
      <point x="1219" y="0" type="line"/>
    </contour>
    <contour>
      <point x="397" y="672" type="line"/>
      <point x="397" y="830" type="line"/>
      <point x="1117" y="830" type="line"/>
      <point x="1117" y="672" type="line"/>
    </contour>
  </outline>
</glyph>
<glyph name="P" format="2">
  <advance width="1450"/>
  <unicode hex="0050"/>
  <anchor x="725" y="0" name="bottom"/>
  <anchor x="725" y="1456" name="top"/>
  <outline>
    <contour>
      <point x="295" y="0" type="line"/>
      <point x="295" y="1456" type="line"/>
      <point x="777" y="1456" type="line" smooth="yes"/>
      <point x="1017" y="1456"/>
      <point x="1275" y="1215"/>
      <point x="1275" y="1015" type="qcurve" smooth="yes"/>
      <point x="1275" y="815"/>
      <point x="1017" y="570"/>
      <point x="777" y="570" type="qcurve" smooth="yes"/>
      <point x="391" y="570" type="line"/>
      <point x="391" y="728" type="line"/>
      <point x="777" y="728" type="line" smooth="yes"/>
      <point x="947" y="728"/>
      <point x="1083" y="895"/>
      <point x="1083" y="1015" type="qcurve" smooth="yes"/>
      <point x="1083" y="1135"/>
      <point x="947" y="1298"/>
      <point x="777" y="1298" type="qcurve" smooth="yes"/>
      <point x="487" y="1298" type="line"/>
      <point x="487" y="0" type="line"/>
    </contour>
  </outline>
</glyph>
<glyph name="Z" format="2">
  <advance width="1440"/>
  <unicode hex="005A"/>
  <anchor x="720" y="0" name="bottom"/>
  <anchor x="720" y="1456" name="top"/>
  <outline>
    <contour>
      <point x="190" y="0" type="line"/>
      <point x="190" y="140" type="line"/>
      <point x="988" y="1298" type="line"/>
      <point x="202" y="1298" type="line"/>
      <point x="202" y="1456" type="line"/>
      <point x="1217" y="1456" type="line"/>
      <point x="1217" y="1316" type="line"/>
      <point x="419" y="158" type="line"/>
      <point x="1249" y="158" type="line"/>
      <point x="1249" y="0" type="line"/>
    </contour>
  </outline>
</glyph>
<glyph name="e" format="2">
  <advance width="1338"/>
  <unicode hex="0065"/>
  <anchor x="715" y="0" name="bottom"/>
  <anchor x="896" y="0" name="ogonek"/>
  <anchor x="685" y="1052" name="top"/>
  <outline>
    <contour>
      <point x="210" y="510" type="qcurve" smooth="yes"/>
      <point x="210" y="542" type="line" smooth="yes"/>
      <point x="210" y="780"/>
      <point x="471" y="1082"/>
      <point x="686" y="1082" type="qcurve" smooth="yes"/>
      <point x="901" y="1082"/>
      <point x="1133" y="800"/>
      <point x="1133" y="560" type="qcurve" smooth="yes"/>
      <point x="1133" y="484" type="line"/>
      <point x="305" y="484" type="line"/>
      <point x="305" y="632" type="line"/>
      <point x="946" y="632" type="line"/>
      <point x="946" y="656" type="line" smooth="yes"/>
      <point x="946" y="770"/>
      <point x="816" y="930"/>
      <point x="694" y="930" type="qcurve" smooth="yes"/>
      <point x="546" y="930"/>
      <point x="400" y="705"/>
      <point x="400" y="542" type="qcurve" smooth="yes"/>
      <point x="400" y="510" type="line" smooth="yes"/>
      <point x="400" y="347"/>
      <point x="554" y="122"/>
      <point x="716" y="122" type="qcurve" smooth="yes"/>
      <point x="816" y="122"/>
      <point x="960" y="210"/>
      <point x="1005" y="270" type="qcurve"/>
      <point x="1125" y="175" type="line"/>
      <point x="1075" y="100"/>
      <point x="866" y="-30"/>
      <point x="716" y="-30" type="qcurve" smooth="yes"/>
      <point x="471" y="-30"/>
      <point x="210" y="272"/>
    </contour>
  </outline>
</glyph>
<glyph name="f" format="2">
  <advance width="850"/>
  <unicode hex="0066"/>
  <anchor x="425" y="0" name="bottom"/>
  <anchor x="425" y="1456" name="top"/>
  <outline>
    <contour>
      <point x="321" y="0" type="line"/>
      <point x="321" y="1120" type="line" smooth="yes"/>
      <point x="321" y="1294"/>
      <point x="511" y="1476"/>
      <point x="675" y="1476" type="qcurve" smooth="yes"/>
      <point x="707" y="1476"/>
      <point x="773" y="1468"/>
      <point x="803" y="1460" type="qcurve"/>
      <point x="793" y="1310" type="line"/>
      <point x="771" y="1314"/>
      <point x="721" y="1320"/>
      <point x="695" y="1320" type="qcurve" smooth="yes"/>
      <point x="605" y="1320"/>
      <point x="507" y="1220"/>
      <point x="507" y="1120" type="qcurve" smooth="yes"/>
      <point x="507" y="992" type="line"/>
      <point x="507" y="970" type="line"/>
      <point x="507" y="0" type="line"/>
    </contour>
    <contour>
      <point x="150" y="910" type="line"/>
      <point x="150" y="1052" type="line"/>
      <point x="391" y="1052" type="line"/>
      <point x="437" y="1052" type="line"/>
      <point x="735" y="1052" type="line"/>
      <point x="735" y="910" type="line"/>
    </contour>
  </outline>
</glyph>
<glyph name="g" format="2">
  <advance width="1420"/>
  <unicode hex="0067"/>
  <anchor x="710" y="-416" name="bottom"/>
  <anchor x="710" y="1052" name="top"/>
  <outline>
    <contour>
      <point x="675" y="-436" type="qcurve" smooth="yes"/>
      <point x="545" y="-436"/>
      <point x="325" y="-350"/>
      <point x="249" y="-284" type="qcurve"/>
      <point x="366" y="-144" type="line"/>
      <point x="410" y="-195"/>
      <point x="570" y="-274"/>
      <point x="670" y="-274" type="qcurve" smooth="yes"/>
      <point x="805" y="-274"/>
      <point x="961" y="-120"/>
      <point x="961" y="20" type="qcurve" smooth="yes"/>
      <point x="961" y="915" type="line"/>
      <point x="971" y="915" type="line"/>
      <point x="979" y="1052" type="line"/>
      <point x="1147" y="1052" type="line"/>
      <point x="1147" y="20" type="line" smooth="yes"/>
      <point x="1147" y="-200"/>
      <point x="885" y="-436"/>
    </contour>
    <contour>
      <point x="690" y="132" type="qcurve" smooth="yes"/>
      <point x="831" y="132"/>
      <point x="1004" y="354"/>
      <point x="1004" y="503" type="qcurve" smooth="yes"/>
      <point x="1004" y="531" type="line" smooth="yes"/>
      <point x="1004" y="704"/>
      <point x="826" y="920"/>
      <point x="690" y="920" type="qcurve" smooth="yes"/>
      <point x="540" y="920"/>
      <point x="400" y="702"/>
      <point x="400" y="542" type="qcurve" smooth="yes"/>
      <point x="400" y="510" type="line" smooth="yes"/>
      <point x="400" y="350"/>
      <point x="540" y="132"/>
    </contour>
    <contour>
      <point x="650" y="-20" type="qcurve" smooth="yes"/>
      <point x="450" y="-20"/>
      <point x="210" y="280"/>
      <point x="210" y="510" type="qcurve" smooth="yes"/>
      <point x="210" y="542" type="line" smooth="yes"/>
      <point x="210" y="772"/>
      <point x="450" y="1072"/>
      <point x="650" y="1072" type="qcurve" smooth="yes"/>
      <point x="851" y="1072"/>
      <point x="1071" y="769"/>
      <point x="1071" y="531" type="qcurve" smooth="yes"/>
      <point x="1071" y="505" type="line" smooth="yes"/>
      <point x="1071" y="282"/>
      <point x="850" y="-20"/>
    </contour>
  </outline>
</glyph>
<glyph name="k" format="2">
  <advance width="1278"/>
  <unicode hex="006B"/>
  <anchor x="639" y="0" name="bottom"/>
  <anchor x="639" y="1536" name="top"/>
  <outline>
    <contour>
      <point x="273" y="0" type="line"/>
      <point x="273" y="1536" type="line"/>
      <point x="459" y="1536" type="line"/>
      <point x="459" y="0" type="line"/>
    </contour>
    <contour>
      <point x="951" y="0" type="line"/>
      <point x="539" y="547" type="line"/>
      <point x="655" y="675" type="line"/>
      <point x="1169" y="0" type="line"/>
    </contour>
    <contour>
      <point x="366" y="258" type="line"/>
      <point x="366" y="476" type="line"/>
      <point x="909" y="1052" type="line"/>
      <point x="1120" y="1052" type="line"/>
    </contour>
  </outline>
</glyph>
<glyph name="m" format="2">
  <advance width="2014"/>
  <unicode hex="006D"/>
  <anchor x="1007" y="0" name="bottom"/>
  <anchor x="1007" y="1052" name="top"/>
  <outline>
    <contour>
      <point x="273" y="0" type="line"/>
      <point x="273" y="1052" type="line"/>
      <point x="441" y="1052" type="line"/>
      <point x="459" y="757" type="line"/>
      <point x="459" y="0" type="line"/>
    </contour>
    <contour>
      <point x="1105" y="681" type="qcurve" smooth="yes"/>
      <point x="1105" y="0" type="line"/>
      <point x="919" y="0" type="line"/>
      <point x="919" y="681" type="line" smooth="yes"/>
      <point x="919" y="807"/>
      <point x="811" y="916"/>
      <point x="712" y="916" type="qcurve" smooth="yes"/>
      <point x="621" y="916"/>
      <point x="473" y="798"/>
      <point x="370" y="585" type="qcurve"/>
      <point x="370" y="764" type="line"/>
      <point x="446" y="942"/>
      <point x="657" y="1072"/>
      <point x="767" y="1072" type="qcurve" smooth="yes"/>
      <point x="917" y="1072"/>
      <point x="1105" y="889"/>
    </contour>
    <contour>
      <point x="1016" y="823" type="line"/>
      <point x="1040" y="916"/>
      <point x="1257" y="1072"/>
      <point x="1395" y="1072" type="qcurve" smooth="yes"/>
      <point x="1567" y="1072"/>
      <point x="1751" y="891"/>
      <point x="1751" y="679" type="qcurve" smooth="yes"/>
      <point x="1751" y="0" type="line"/>
      <point x="1565" y="0" type="line"/>
      <point x="1565" y="681" type="line" smooth="yes"/>
      <point x="1565" y="807"/>
      <point x="1457" y="916"/>
      <point x="1347" y="916" type="qcurve" smooth="yes"/>
      <point x="1236" y="916"/>
      <point x="1054" y="735"/>
      <point x="1016" y="585" type="qcurve"/>
    </contour>
  </outline>
</glyph>
<glyph name="o" format="2">
  <advance width="1412"/>
  <unicode hex="006F"/>
  <anchor x="706" y="0" name="bottom"/>
  <anchor x="706" y="526" name="center"/>
  <anchor x="887" y="0" name="ogonek"/>
  <anchor x="706" y="1052" name="top"/>
  <anchor x="885" y="1052" name="topright"/>
  <anchor x="303" y="536" name="yu_dash"/>
  <outline>
    <contour>
      <point x="210" y="510" type="qcurve" smooth="yes"/>
      <point x="210" y="542" type="line" smooth="yes"/>
      <point x="210" y="780"/>
      <point x="480" y="1082"/>
      <point x="706" y="1082" type="qcurve" smooth="yes"/>
      <point x="932" y="1082"/>
      <point x="1202" y="780"/>
      <point x="1202" y="542" type="qcurve" smooth="yes"/>
      <point x="1202" y="510" type="line" smooth="yes"/>
      <point x="1202" y="272"/>
      <point x="932" y="-30"/>
      <point x="706" y="-30" type="qcurve" smooth="yes"/>
      <point x="480" y="-30"/>
      <point x="210" y="272"/>
    </contour>
    <contour>
      <point x="400" y="542" type="qcurve" smooth="yes"/>
      <point x="400" y="510" type="line" smooth="yes"/>
      <point x="400" y="347"/>
      <point x="554" y="122"/>
      <point x="706" y="122" type="qcurve" smooth="yes"/>
      <point x="858" y="122"/>
      <point x="1012" y="347"/>
      <point x="1012" y="510" type="qcurve" smooth="yes"/>
      <point x="1012" y="542" type="line" smooth="yes"/>
      <point x="1012" y="705"/>
      <point x="858" y="930"/>
      <point x="706" y="930" type="qcurve" smooth="yes"/>
      <point x="554" y="930"/>
      <point x="400" y="705"/>
    </contour>
  </outline>
</glyph>
<glyph name="u" format="2">
  <advance width="1388"/>
  <unicode hex="0075"/>
  <anchor x="694" y="0" name="bottom"/>
  <anchor x="1105" y="0" name="ogonek"/>
  <anchor x="694" y="1052" name="top"/>
  <anchor x="1028" y="1052" name="topright"/>
  <anchor x="1024" y="0" name="cy_descender"/>
  <outline>
    <contour>
      <point x="611" y="-20" type="qcurve" smooth="yes"/>
      <point x="452" y="-20"/>
      <point x="263" y="161"/>
      <point x="263" y="373" type="qcurve" smooth="yes"/>
      <point x="263" y="1052" type="line"/>
      <point x="449" y="1052" type="line"/>
      <point x="449" y="371" type="line" smooth="yes"/>
      <point x="449" y="245"/>
      <point x="562" y="136"/>
      <point x="666" y="136" type="qcurve" smooth="yes"/>
      <point x="755" y="136"/>
      <point x="895" y="237"/>
      <point x="1021" y="433" type="qcurve"/>
      <point x="1025" y="260" type="line"/>
      <point x="916" y="83"/>
      <point x="711" y="-20"/>
    </contour>
    <contour>
      <point x="947" y="0" type="line"/>
      <point x="929" y="304" type="line"/>
      <point x="929" y="1052" type="line"/>
      <point x="1115" y="1052" type="line"/>
      <point x="1115" y="0" type="line"/>
    </contour>
  </outline>
</glyph>
<glyph name="braceleft" format="2">
  <advance width="950"/>
  <unicode hex="007B"/>
  <outline>
    <contour>
      <point x="795" y="-312" type="line"/>
      <point x="569" y="-312"/>
      <point x="314" y="-32"/>
      <point x="351" y="123" type="qcurve" smooth="yes"/>
      <point x="401" y="334" type="line" smooth="yes"/>
      <point x="426" y="441"/>
      <point x="301" y="508"/>
      <point x="189" y="508" type="qcurve"/>
      <point x="189" y="640" type="line"/>
      <point x="301" y="640"/>
      <point x="426" y="707"/>
      <point x="401" y="814" type="qcurve" smooth="yes"/>
      <point x="351" y="1025" type="line" smooth="yes"/>
      <point x="314" y="1180"/>
      <point x="569" y="1460"/>
      <point x="795" y="1460" type="qcurve"/>
      <point x="795" y="1314" type="line"/>
      <point x="647" y="1314"/>
      <point x="508" y="1146"/>
      <point x="537" y="1025" type="qcurve" smooth="yes"/>
      <point x="587" y="814" type="line" smooth="yes"/>
      <point x="607" y="730"/>
      <point x="535" y="600"/>
      <point x="437" y="574" type="qcurve"/>
      <point x="535" y="548"/>
      <point x="607" y="418"/>
      <point x="587" y="334" type="qcurve" smooth="yes"/>
      <point x="537" y="123" type="line" smooth="yes"/>
      <point x="508" y="2"/>
      <point x="647" y="-166"/>
      <point x="795" y="-166" type="qcurve"/>
    </contour>
  </outline>
</glyph>
<glyph name="currency" format="2">
  <advance width="1408"/>
  <unicode hex="00A4"/>
  <guideline x="0" y="901" angle="0" identifier="bRYxxRaQQf"/>
  <guideline x="0" y="555" angle="0" identifier="917FhrihjR"/>
  <outline>
    <contour>
      <point x="386" y="712" type="qcurve"/>
      <point x="386" y="567"/>
      <point x="570" y="373"/>
      <point x="701" y="373" type="qcurve" smooth="yes"/>
      <point x="831" y="373"/>
      <point x="1014" y="567"/>
      <point x="1014" y="712" type="qcurve" smooth="yes"/>
      <point x="1014" y="855"/>
      <point x="831" y="1049"/>
      <point x="701" y="1049" type="qcurve" smooth="yes"/>
      <point x="570" y="1049"/>
      <point x="386" y="855"/>
    </contour>
    <contour>
      <point x="203" y="718" type="qcurve"/>
      <point x="203" y="933"/>
      <point x="499" y="1225"/>
      <point x="700" y="1225" type="qcurve" smooth="yes"/>
      <point x="901" y="1225"/>
      <point x="1197" y="933"/>
      <point x="1197" y="718" type="qcurve" smooth="yes"/>
      <point x="1197" y="504"/>
      <point x="901" y="209"/>
      <point x="700" y="209" type="qcurve" smooth="yes"/>
      <point x="499" y="209"/>
      <point x="203" y="504"/>
    </contour>
    <contour>
      <point x="1244" y="1176" type="line"/>
      <point x="1042" y="970" type="line"/>
      <point x="920" y="1097" type="line"/>
      <point x="1122" y="1303" type="line"/>
    </contour>
    <contour>
      <point x="460" y="354" type="line"/>
      <point x="258" y="148" type="line"/>
      <point x="137" y="274" type="line"/>
      <point x="339" y="479" type="line"/>
    </contour>
    <contour>
      <point x="1148" y="155" type="line"/>
      <point x="946" y="361" type="line"/>
      <point x="1069" y="487" type="line"/>
      <point x="1271" y="282" type="line"/>
    </contour>
    <contour>
      <point x="356" y="984" type="line"/>
      <point x="154" y="1190" type="line"/>
      <point x="275" y="1316" type="line"/>
      <point x="477" y="1110" type="line"/>
    </contour>
  </outline>
</glyph>
<glyph name="yen" format="2">
  <advance width="1274"/>
  <unicode hex="00A5"/>
  <outline>
    <contour>
      <point x="168" y="303" type="line"/>
      <point x="168" y="462" type="line"/>
      <point x="1114" y="462" type="line"/>
      <point x="1114" y="303" type="line"/>
    </contour>
    <contour>
      <point x="168" y="628" type="line"/>
      <point x="168" y="788" type="line"/>
      <point x="534" y="788" type="line"/>
      <point x="587" y="669" type="line"/>
      <point x="696" y="669" type="line"/>
      <point x="744" y="788" type="line"/>
      <point x="1114" y="788" type="line"/>
      <point x="1114" y="628" type="line"/>
    </contour>
    <contour>
      <point x="545" y="0" type="line"/>
      <point x="545" y="548" type="line"/>
      <point x="90" y="1456" type="line"/>
      <point x="299" y="1456" type="line"/>
      <point x="575" y="849" type="line" smooth="yes"/>
      <point x="589" y="819"/>
      <point x="622" y="716"/>
      <point x="629" y="679" type="qcurve"/>
      <point x="649" y="679" type="line"/>
      <point x="658" y="735"/>
      <point x="689" y="819"/>
      <point x="703" y="849" type="qcurve" smooth="yes"/>
      <point x="983" y="1456" type="line"/>
      <point x="1184" y="1456" type="line"/>
      <point x="729" y="548" type="line"/>
      <point x="729" y="0" type="line"/>
    </contour>
  </outline>
</glyph>
<glyph name="copyright" format="2">
  <advance width="1904"/>
  <unicode hex="00A9"/>
  <guideline x="0" y="901" angle="0" identifier="0Pjz0qKr8z"/>
  <guideline x="0" y="555" angle="0" identifier="sJo8BlDiJ7"/>
  <outline>
    <contour>
      <point x="1155" y="546" type="qcurve"/>
      <point x="1337" y="546" type="line"/>
      <point x="1337" y="375"/>
      <point x="1102" y="205"/>
      <point x="954" y="205" type="qcurve" smooth="yes"/>
      <point x="767" y="205"/>
      <point x="544" y="437"/>
      <point x="544" y="664" type="qcurve" smooth="yes"/>
      <point x="544" y="703" type="line" smooth="yes"/>
      <point x="544" y="931"/>
      <point x="768" y="1170"/>
      <point x="954" y="1170" type="qcurve" smooth="yes"/>
      <point x="1142" y="1170"/>
      <point x="1338" y="983"/>
      <point x="1338" y="829" type="qcurve"/>
      <point x="1156" y="829" type="line"/>
      <point x="1156" y="917"/>
      <point x="1053" y="1006"/>
      <point x="954" y="1006" type="qcurve" smooth="yes"/>
      <point x="847" y="1006"/>
      <point x="737" y="868"/>
      <point x="737" y="703" type="qcurve" smooth="yes"/>
      <point x="737" y="664" type="line" smooth="yes"/>
      <point x="737" y="499"/>
      <point x="856" y="362"/>
      <point x="954" y="362" type="qcurve" smooth="yes"/>
      <point x="1062" y="362"/>
      <point x="1155" y="457"/>
    </contour>
    <contour>
      <point x="311" y="687" type="qcurve" smooth="yes"/>
      <point x="311" y="400"/>
      <point x="688" y="4"/>
      <point x="953" y="4" type="qcurve" smooth="yes"/>
      <point x="1217" y="4"/>
      <point x="1594" y="400"/>
      <point x="1594" y="687" type="qcurve" smooth="yes"/>
      <point x="1594" y="975"/>
      <point x="1217" y="1367"/>
      <point x="953" y="1367" type="qcurve" smooth="yes"/>
      <point x="688" y="1367"/>
      <point x="311" y="975"/>
    </contour>
    <contour>
      <point x="163" y="687" type="qcurve" smooth="yes"/>
      <point x="163" y="1039"/>
      <point x="626" y="1519"/>
      <point x="952" y="1519" type="qcurve" smooth="yes"/>
      <point x="1277" y="1519"/>
      <point x="1741" y="1039"/>
      <point x="1741" y="687" type="qcurve" smooth="yes"/>
      <point x="1741" y="337"/>
      <point x="1277" y="-147"/>
      <point x="952" y="-147" type="qcurve" smooth="yes"/>
      <point x="626" y="-147"/>
      <point x="163" y="337"/>
    </contour>
  </outline>
</glyph>
<glyph name="registered" format="2">
  <advance width="1904"/>
  <unicode hex="00AE"/>
  <outline>
    <contour>
      <point x="163" y="687" type="qcurve" smooth="yes"/>
      <point x="163" y="1039"/>
      <point x="626" y="1519"/>
      <point x="952" y="1519" type="qcurve" smooth="yes"/>
      <point x="1277" y="1519"/>
      <point x="1741" y="1039"/>
      <point x="1741" y="687" type="qcurve" smooth="yes"/>
      <point x="1741" y="337"/>
      <point x="1277" y="-147"/>
      <point x="952" y="-147" type="qcurve" smooth="yes"/>
      <point x="626" y="-147"/>
      <point x="163" y="337"/>
    </contour>
    <contour>
      <point x="311" y="687" type="qcurve" smooth="yes"/>
      <point x="311" y="400"/>
      <point x="688" y="4"/>
      <point x="953" y="4" type="qcurve" smooth="yes"/>
      <point x="1217" y="4"/>
      <point x="1594" y="400"/>
      <point x="1594" y="687" type="qcurve" smooth="yes"/>
      <point x="1594" y="975"/>
      <point x="1217" y="1367"/>
      <point x="953" y="1367" type="qcurve" smooth="yes"/>
      <point x="688" y="1367"/>
      <point x="311" y="975"/>
    </contour>
    <contour>
      <point x="624" y="225" type="line"/>
      <point x="624" y="1158" type="line"/>
      <point x="946" y="1158" type="line" smooth="yes"/>
      <point x="1118" y="1158"/>
      <point x="1322" y="1018"/>
      <point x="1322" y="877" type="qcurve" smooth="yes"/>
      <point x="1322" y="764"/>
      <point x="1151" y="597"/>
      <point x="1010" y="597" type="qcurve" smooth="yes"/>
      <point x="719" y="597" type="line"/>
      <point x="719" y="738" type="line"/>
      <point x="972" y="738" type="line" smooth="yes"/>
      <point x="1045" y="738"/>
      <point x="1141" y="795"/>
      <point x="1141" y="859" type="qcurve" smooth="yes"/>
      <point x="1141" y="940"/>
      <point x="1065" y="1006"/>
      <point x="947" y="1007" type="qcurve" smooth="yes"/>
      <point x="789" y="1007" type="line"/>
      <point x="789" y="225" type="line"/>
    </contour>
    <contour>
      <point x="1167" y="225" type="line"/>
      <point x="948" y="672" type="line"/>
      <point x="1029" y="672" type="line"/>
      <point x="1087" y="638"/>
      <point x="1160" y="559"/>
      <point x="1177" y="530" type="qcurve" smooth="yes"/>
      <point x="1346" y="243" type="line"/>
      <point x="1346" y="225" type="line"/>
    </contour>
  </outline>
</glyph>
<glyph name="thorn" format="2">
  <advance width="1420"/>
  <unicode hex="00FE"/>
  <outline>
    <contour>
      <point x="459" y="-416" type="line"/>
      <point x="273" y="-416" type="line"/>
      <point x="273" y="1536" type="line"/>
      <point x="459" y="1536" type="line"/>
      <point x="459" y="928" type="line"/>
    </contour>
    <contour>
      <point x="730" y="132" type="qcurve" smooth="yes"/>
      <point x="880" y="132"/>
      <point x="1020" y="350"/>
      <point x="1020" y="510" type="qcurve" smooth="yes"/>
      <point x="1020" y="542" type="line" smooth="yes"/>
      <point x="1020" y="702"/>
      <point x="880" y="920"/>
      <point x="730" y="920" type="qcurve" smooth="yes"/>
      <point x="589" y="920"/>
      <point x="416" y="698"/>
      <point x="416" y="549" type="qcurve" smooth="yes"/>
      <point x="416" y="521" type="line" smooth="yes"/>
      <point x="416" y="348"/>
      <point x="594" y="132"/>
    </contour>
    <contour>
      <point x="770" y="-20" type="qcurve" smooth="yes"/>
      <point x="577" y="-20"/>
      <point x="349" y="265"/>
      <point x="349" y="520" type="qcurve" smooth="yes"/>
      <point x="349" y="554" type="line" smooth="yes"/>
      <point x="349" y="765"/>
      <point x="566" y="1072"/>
      <point x="770" y="1072" type="qcurve" smooth="yes"/>
      <point x="970" y="1072"/>
      <point x="1210" y="772"/>
      <point x="1210" y="542" type="qcurve" smooth="yes"/>
      <point x="1210" y="510" type="line" smooth="yes"/>
      <point x="1210" y="280"/>
      <point x="970" y="-20"/>
    </contour>
  </outline>
</glyph>
<glyph name="kgreenlandic" format="2">
  <advance width="1322"/>
  <unicode hex="0138"/>
  <outline>
    <contour>
      <point x="465" y="1052" type="line"/>
      <point x="465" y="0" type="line"/>
      <point x="280" y="0" type="line"/>
      <point x="280" y="1052" type="line"/>
    </contour>
    <contour>
      <point x="1152" y="1052" type="line"/>
      <point x="642" y="462" type="line"/>
      <point x="375" y="462" type="line"/>
      <point x="375" y="624" type="line"/>
      <point x="557" y="624" type="line"/>
      <point x="928" y="1052" type="line"/>
    </contour>
    <contour>
      <point x="979" y="0" type="line"/>
      <point x="548" y="490" type="line"/>
      <point x="667" y="624" type="line"/>
      <point x="1213" y="0" type="line"/>
    </contour>
  </outline>
</glyph>
<glyph name="Schwa" format="2">
  <advance width="1622"/>
  <unicode hex="018F"/>
  <outline>
    <contour>
      <point x="801" y="-30" type="qcurve" smooth="yes"/>
      <point x="517" y="-30"/>
      <point x="189" y="311"/>
      <point x="189" y="726" type="qcurve" smooth="yes"/>
      <point x="189" y="784" type="line"/>
      <point x="1315" y="784" type="line"/>
      <point x="1315" y="622" type="line"/>
      <point x="828" y="627" type="line"/>
      <point x="397" y="624" type="line"/>
      <point x="397" y="567" type="line" smooth="yes"/>
      <point x="397" y="353"/>
      <point x="622" y="129"/>
      <point x="809" y="129" type="qcurve" smooth="yes"/>
      <point x="999" y="129"/>
      <point x="1232" y="462"/>
      <point x="1230" y="749" type="qcurve" smooth="yes"/>
      <point x="1228" y="1056"/>
      <point x="977" y="1316"/>
      <point x="791" y="1316" type="qcurve" smooth="yes"/>
      <point x="615" y="1316"/>
      <point x="431" y="1125"/>
      <point x="405" y="984" type="qcurve" smooth="yes"/>
      <point x="402" y="968" type="line"/>
      <point x="203" y="968" type="line"/>
      <point x="205" y="982" type="line" smooth="yes"/>
      <point x="238" y="1212"/>
      <point x="537" y="1489"/>
      <point x="789" y="1489" type="qcurve" smooth="yes"/>
      <point x="1070" y="1489"/>
      <point x="1417" y="1128"/>
      <point x="1417" y="759" type="qcurve" smooth="yes"/>
      <point x="1417" y="384"/>
      <point x="1097" y="-30"/>
    </contour>
  </outline>
</glyph>
<glyph name="primemod" format="2">
  <advance width="850"/>
  <unicode hex="02B9"/>
  <outline>
    <contour>
      <point x="349" y="1502" type="line"/>
      <point x="538" y="1502" type="line"/>
      <point x="419" y="991" type="line"/>
      <point x="297" y="996" type="line"/>
    </contour>
  </outline>
</glyph>
<glyph name="beta" format="2">
  <advance width="1440"/>
  <unicode hex="03B2"/>
  <outline>
    <contour>
      <point x="273" y="-416" type="line"/>
      <point x="273" y="978" type="line" smooth="yes"/>
      <point x="273" y="1231"/>
      <point x="522" y="1476"/>
      <point x="720" y="1476" type="qcurve" smooth="yes"/>
      <point x="923" y="1476"/>
      <point x="1139" y="1270"/>
      <point x="1139" y="1075" type="qcurve"/>
      <point x="1139" y="956"/>
      <point x="999" y="779"/>
      <point x="895" y="754" type="qcurve"/>
      <point x="895" y="770" type="line"/>
      <point x="1048" y="750"/>
      <point x="1230" y="560"/>
      <point x="1230" y="423" type="qcurve" smooth="yes"/>
      <point x="1230" y="233"/>
      <point x="960" y="-21"/>
      <point x="771" y="-21" type="qcurve" smooth="yes"/>
      <point x="623" y="-21"/>
      <point x="420" y="147"/>
      <point x="363" y="254" type="qcurve"/>
      <point x="363" y="491" type="line"/>
      <point x="435" y="309"/>
      <point x="613" y="132"/>
      <point x="758" y="132" type="qcurve" smooth="yes"/>
      <point x="893" y="132"/>
      <point x="1041" y="306"/>
      <point x="1041" y="422" type="qcurve" smooth="yes"/>
      <point x="1041" y="540"/>
      <point x="888" y="685"/>
      <point x="695" y="685" type="qcurve" smooth="yes"/>
      <point x="597" y="685" type="line"/>
      <point x="597" y="827" type="line"/>
      <point x="696" y="827" type="line" smooth="yes"/>
      <point x="838" y="827"/>
      <point x="964" y="967"/>
      <point x="964" y="1076" type="qcurve" smooth="yes"/>
      <point x="964" y="1189"/>
      <point x="854" y="1324"/>
      <point x="720" y="1324" type="qcurve" smooth="yes"/>
      <point x="587" y="1324"/>
      <point x="459" y="1156"/>
      <point x="459" y="985" type="qcurve" smooth="yes"/>
      <point x="459" y="-416" type="line"/>
    </contour>
  </outline>
</glyph>
<glyph name="epsilon" format="2">
  <advance width="1328"/>
  <unicode hex="03B5"/>
  <anchor x="698" y="1052" name="top"/>
  <outline>
    <contour>
      <point x="668" y="-30" type="qcurve"/>
      <point x="452" y="-30"/>
      <point x="224" y="133"/>
      <point x="224" y="286" type="qcurve" smooth="yes"/>
      <point x="224" y="380"/>
      <point x="357" y="524"/>
      <point x="501" y="536" type="qcurve"/>
      <point x="501" y="514" type="line"/>
      <point x="387" y="531"/>
      <point x="263" y="658"/>
      <point x="263" y="756" type="qcurve" smooth="yes"/>
      <point x="263" y="906"/>
      <point x="488" y="1081"/>
      <point x="698" y="1081" type="qcurve" smooth="yes"/>
      <point x="921" y="1081"/>
      <point x="1139" y="858"/>
      <point x="1139" y="710" type="qcurve"/>
      <point x="959" y="710" type="line"/>
      <point x="959" y="801"/>
      <point x="841" y="930"/>
      <point x="698" y="930" type="qcurve" smooth="yes"/>
      <point x="577" y="930"/>
      <point x="452" y="845"/>
      <point x="452" y="755" type="qcurve" smooth="yes"/>
      <point x="452" y="674"/>
      <point x="549" y="597"/>
      <point x="634" y="597" type="qcurve" smooth="yes"/>
      <point x="844" y="597" type="line"/>
      <point x="844" y="455" type="line"/>
      <point x="634" y="455" type="line" smooth="yes"/>
      <point x="515" y="455"/>
      <point x="414" y="365"/>
      <point x="414" y="296" type="qcurve" smooth="yes"/>
      <point x="414" y="212"/>
      <point x="535" y="122"/>
      <point x="678" y="122" type="qcurve"/>
      <point x="812" y="122"/>
      <point x="958" y="245"/>
      <point x="958" y="342" type="qcurve"/>
      <point x="1138" y="342" type="line"/>
      <point x="1138" y="191"/>
      <point x="885" y="-30"/>
    </contour>
  </outline>
</glyph>
<glyph name="mu" format="2">
  <advance width="1456"/>
  <unicode hex="03BC"/>
  <outline>
    <contour>
      <point x="273" y="-416" type="line"/>
      <point x="273" y="1052" type="line"/>
      <point x="459" y="1052" type="line"/>
      <point x="459" y="-416" type="line"/>
    </contour>
    <contour>
      <point x="381" y="392" type="line"/>
      <point x="461" y="232"/>
      <point x="613" y="132"/>
      <point x="705" y="132" type="qcurve" smooth="yes"/>
      <point x="797" y="132"/>
      <point x="939" y="268"/>
      <point x="939" y="357" type="qcurve" smooth="yes"/>
      <point x="939" y="1052" type="line"/>
      <point x="1125" y="1052" type="line"/>
      <point x="1125" y="275" type="line" smooth="yes"/>
      <point x="1125" y="200"/>
      <point x="1171" y="143"/>
      <point x="1216" y="143" type="qcurve" smooth="yes"/>
      <point x="1236" y="143"/>
      <point x="1272" y="150"/>
      <point x="1289" y="157" type="qcurve"/>
      <point x="1289" y="5" type="line"/>
      <point x="1270" y="-4"/>
      <point x="1215" y="-17"/>
      <point x="1179" y="-17" type="qcurve" smooth="yes"/>
      <point x="1080" y="-17"/>
      <point x="970" y="59"/>
      <point x="955" y="130" type="qcurve"/>
      <point x="949" y="130" type="line"/>
      <point x="913" y="68"/>
      <point x="779" y="-20"/>
      <point x="691" y="-20" type="qcurve" smooth="yes"/>
      <point x="591" y="-20"/>
      <point x="436" y="91"/>
      <point x="381" y="194" type="qcurve"/>
    </contour>
  </outline>
</glyph>
<glyph name="upsilon" format="2">
  <advance width="1378"/>
  <unicode hex="03C5"/>
  <anchor x="690" y="1052" name="top"/>
  <outline>
    <contour>
      <point x="689" y="-20" type="qcurve" smooth="yes"/>
      <point x="462" y="-20"/>
      <point x="263" y="201"/>
      <point x="263" y="403" type="qcurve" smooth="yes"/>
      <point x="263" y="1052" type="line"/>
      <point x="449" y="1052" type="line"/>
      <point x="449" y="401" type="line" smooth="yes"/>
      <point x="449" y="275"/>
      <point x="565" y="136"/>
      <point x="689" y="136" type="qcurve" smooth="yes"/>
      <point x="813" y="136"/>
      <point x="929" y="275"/>
      <point x="929" y="401" type="qcurve" smooth="yes"/>
      <point x="929" y="1052" type="line"/>
      <point x="1115" y="1052" type="line"/>
      <point x="1115" y="403" type="line" smooth="yes"/>
      <point x="1115" y="201"/>
      <point x="916" y="-20"/>
    </contour>
  </outline>
</glyph>
<glyph name="phi" format="2">
  <advance width="1698"/>
  <unicode hex="03C6"/>
  <outline>
    <contour>
      <point x="756" y="-416" type="line"/>
      <point x="756" y="45" type="line"/>
      <point x="756" y="89" type="line"/>
      <point x="756" y="981" type="line"/>
      <point x="756" y="1022" type="line"/>
      <point x="756" y="1456" type="line"/>
      <point x="942" y="1456" type="line"/>
      <point x="942" y="1022" type="line"/>
      <point x="942" y="979" type="line"/>
      <point x="942" y="85" type="line"/>
      <point x="942" y="45" type="line"/>
      <point x="942" y="-416" type="line"/>
    </contour>
    <contour>
      <point x="756" y="-30" type="line"/>
      <point x="487" y="-20"/>
      <point x="210" y="267"/>
      <point x="210" y="510" type="qcurve" smooth="yes"/>
      <point x="210" y="542" type="line" smooth="yes"/>
      <point x="210" y="785"/>
      <point x="487" y="1072"/>
      <point x="756" y="1082" type="qcurve"/>
      <point x="942" y="1082" type="line"/>
      <point x="1211" y="1072"/>
      <point x="1488" y="785"/>
      <point x="1488" y="542" type="qcurve" smooth="yes"/>
      <point x="1488" y="510" type="line" smooth="yes"/>
      <point x="1488" y="267"/>
      <point x="1211" y="-20"/>
      <point x="942" y="-30" type="qcurve"/>
    </contour>
    <contour>
      <point x="756" y="122" type="qcurve"/>
      <point x="942" y="122" type="line"/>
      <point x="1139" y="132"/>
      <point x="1298" y="342"/>
      <point x="1298" y="510" type="qcurve" smooth="yes"/>
      <point x="1298" y="542" type="line" smooth="yes"/>
      <point x="1298" y="710"/>
      <point x="1139" y="920"/>
      <point x="942" y="930" type="qcurve"/>
      <point x="756" y="930" type="line"/>
      <point x="559" y="920"/>
      <point x="400" y="710"/>
      <point x="400" y="542" type="qcurve" smooth="yes"/>
      <point x="400" y="510" type="line" smooth="yes"/>
      <point x="400" y="342"/>
      <point x="559" y="132"/>
    </contour>
  </outline>
</glyph>
<glyph name="Nje" format="2">
  <advance width="2276"/>
  <unicode hex="040A"/>
  <outline>
    <contour>
      <point x="295" y="0" type="line"/>
      <point x="487" y="0" type="line"/>
      <point x="487" y="1456" type="line"/>
      <point x="295" y="1456" type="line"/>
    </contour>
    <contour>
      <point x="1121" y="0" type="line"/>
      <point x="1603" y="0" type="line" smooth="yes"/>
      <point x="1843" y="0"/>
      <point x="2101" y="241"/>
      <point x="2101" y="437" type="qcurve" smooth="yes"/>
      <point x="2101" y="633"/>
      <point x="1843" y="870"/>
      <point x="1603" y="870" type="qcurve" smooth="yes"/>
      <point x="1242" y="870" type="line"/>
      <point x="1242" y="712" type="line"/>
      <point x="1603" y="712" type="line" smooth="yes"/>
      <point x="1773" y="712"/>
      <point x="1909" y="554"/>
      <point x="1909" y="437" type="qcurve" smooth="yes"/>
      <point x="1909" y="320"/>
      <point x="1773" y="158"/>
      <point x="1603" y="158" type="qcurve" smooth="yes"/>
      <point x="1313" y="158" type="line"/>
      <point x="1313" y="1456" type="line"/>
      <point x="1121" y="1456" type="line"/>
    </contour>
    <contour>
      <point x="397" y="712" type="line"/>
      <point x="1210" y="712" type="line"/>
      <point x="1210" y="870" type="line"/>
      <point x="397" y="870" type="line"/>
    </contour>
  </outline>
</glyph>
<glyph name="Dzhe" format="2">
  <advance width="1688"/>
  <unicode hex="040F"/>
  <outline>
    <contour>
      <point x="295" y="0" type="line"/>
      <point x="295" y="1456" type="line"/>
      <point x="487" y="1456" type="line"/>
      <point x="487" y="158" type="line"/>
      <point x="1201" y="158" type="line"/>
      <point x="1201" y="1456" type="line"/>
      <point x="1393" y="1456" type="line"/>
      <point x="1393" y="0" type="line"/>
    </contour>
    <contour>
      <point x="758" y="-290" type="line"/>
      <point x="758" y="80" type="line"/>
      <point x="930" y="80" type="line"/>
      <point x="930" y="-290" type="line"/>
    </contour>
  </outline>
</glyph>
<glyph name="Che" format="2">
  <advance width="1638"/>
  <unicode hex="0427"/>
  <guideline x="1123" y="741" angle="90" identifier="nfCxFSb4p1"/>
  <anchor x="1248" y="0" name="cy_descender"/>
  <outline>
    <contour>
      <point x="457" y="1032" type="line" smooth="yes"/>
      <point x="457" y="854"/>
      <point x="620" y="734"/>
      <point x="818" y="734" type="qcurve" smooth="yes"/>
      <point x="937" y="734"/>
      <point x="1147" y="754"/>
      <point x="1247" y="775" type="qcurve"/>
      <point x="1247" y="617" type="line"/>
      <point x="1113" y="595"/>
      <point x="928" y="576"/>
      <point x="803" y="576" type="qcurve" smooth="yes"/>
      <point x="492" y="576"/>
      <point x="265" y="807"/>
      <point x="265" y="1035" type="qcurve" smooth="yes"/>
      <point x="265" y="1456" type="line"/>
      <point x="457" y="1456" type="line"/>
    </contour>
    <contour>
      <point x="1343" y="1456" type="line"/>
      <point x="1343" y="0" type="line"/>
      <point x="1151" y="0" type="line"/>
      <point x="1151" y="1456" type="line"/>
    </contour>
  </outline>
</glyph>
<glyph name="be" format="2">
  <advance width="1422"/>
  <unicode hex="0431"/>
  <outline>
    <contour>
      <point x="410" y="522" type="qcurve" smooth="yes"/>
      <point x="410" y="490" type="line" smooth="yes"/>
      <point x="410" y="335"/>
      <point x="564" y="122"/>
      <point x="716" y="122" type="qcurve" smooth="yes"/>
      <point x="868" y="122"/>
      <point x="1022" y="335"/>
      <point x="1022" y="490" type="qcurve" smooth="yes"/>
      <point x="1022" y="522" type="line" smooth="yes"/>
      <point x="1022" y="677"/>
      <point x="868" y="890"/>
      <point x="716" y="890" type="qcurve" smooth="yes"/>
      <point x="564" y="890"/>
      <point x="410" y="677"/>
    </contour>
    <contour>
      <point x="762" y="1042" type="qcurve" smooth="yes"/>
      <point x="971" y="1042"/>
      <point x="1212" y="745"/>
      <point x="1212" y="522" type="qcurve" smooth="yes"/>
      <point x="1212" y="490" type="line" smooth="yes"/>
      <point x="1212" y="261"/>
      <point x="942" y="-30"/>
      <point x="716" y="-30" type="qcurve" smooth="yes"/>
      <point x="482" y="-30"/>
      <point x="220" y="263"/>
      <point x="220" y="605" type="qcurve" smooth="yes"/>
      <point x="220" y="631" type="line" smooth="yes"/>
      <point x="220" y="999"/>
      <point x="463" y="1317"/>
      <point x="792" y="1367" type="qcurve" smooth="yes"/>
      <point x="964" y="1394"/>
      <point x="1018" y="1432"/>
      <point x="1022" y="1456" type="qcurve"/>
      <point x="1186" y="1456" type="line"/>
      <point x="1175" y="1351"/>
      <point x="1028" y="1228"/>
      <point x="813" y="1199" type="qcurve" smooth="yes"/>
      <point x="558" y="1166"/>
      <point x="379" y="996"/>
      <point x="362" y="801" type="qcurve"/>
      <point x="373" y="801" type="line"/>
      <point x="425" y="913"/>
      <point x="625" y="1042"/>
    </contour>
  </outline>
</glyph>
<glyph name="ze" format="2">
  <advance width="1345"/>
  <unicode hex="0437"/>
  <anchor x="681" y="-1" name="bottom"/>
  <outline>
    <contour>
      <point x="662" y="-30" type="qcurve" smooth="yes"/>
      <point x="431" y="-30"/>
      <point x="214" y="197"/>
      <point x="214" y="337" type="qcurve" smooth="yes"/>
      <point x="214" y="342" type="line"/>
      <point x="394" y="342" type="line"/>
      <point x="394" y="337" type="line" smooth="yes"/>
      <point x="394" y="256"/>
      <point x="512" y="122"/>
      <point x="663" y="122" type="qcurve" smooth="yes"/>
      <point x="787" y="122"/>
      <point x="923" y="222"/>
      <point x="923" y="309" type="qcurve" smooth="yes"/>
      <point x="923" y="379"/>
      <point x="829" y="463"/>
      <point x="727" y="463" type="qcurve" smooth="yes"/>
      <point x="542" y="463" type="line"/>
      <point x="542" y="607" type="line"/>
      <point x="697" y="607" type="line" smooth="yes"/>
      <point x="800" y="607"/>
      <point x="890" y="690"/>
      <point x="890" y="761" type="qcurve" smooth="yes"/>
      <point x="890" y="842"/>
      <point x="777" y="930"/>
      <point x="675" y="930" type="qcurve" smooth="yes"/>
      <point x="545" y="930"/>
      <point x="414" y="809"/>
      <point x="414" y="715" type="qcurve" smooth="yes"/>
      <point x="414" y="710" type="line"/>
      <point x="234" y="710" type="line"/>
      <point x="234" y="715" type="line" smooth="yes"/>
      <point x="234" y="882"/>
      <point x="465" y="1082"/>
      <point x="675" y="1082" type="qcurve" smooth="yes"/>
      <point x="875" y="1082"/>
      <point x="1078" y="916"/>
      <point x="1078" y="776" type="qcurve" smooth="yes"/>
      <point x="1078" y="695"/>
      <point x="970" y="563"/>
      <point x="879" y="544" type="qcurve"/>
      <point x="879" y="541" type="line"/>
      <point x="987" y="525"/>
      <point x="1110" y="404"/>
      <point x="1110" y="309" type="qcurve" smooth="yes"/>
      <point x="1110" y="145"/>
      <point x="855" y="-30"/>
    </contour>
  </outline>
</glyph>
<glyph name="che" format="2">
  <advance width="1345"/>
  <unicode hex="0447"/>
  <guideline x="855" y="515" angle="90" identifier="GGEFes61Q6"/>
  <anchor x="980" y="0" name="cy_descender"/>
  <outline>
    <contour>
      <point x="436" y="773" type="line" smooth="yes"/>
      <point x="436" y="642"/>
      <point x="535" y="542"/>
      <point x="658" y="542" type="qcurve" smooth="yes"/>
      <point x="747" y="542"/>
      <point x="891" y="568"/>
      <point x="979" y="590" type="qcurve"/>
      <point x="979" y="444" type="line"/>
      <point x="894" y="425"/>
      <point x="746" y="396"/>
      <point x="622" y="396" type="qcurve" smooth="yes"/>
      <point x="426" y="396"/>
      <point x="250" y="583"/>
      <point x="250" y="773" type="qcurve" smooth="yes"/>
      <point x="250" y="1052" type="line"/>
      <point x="436" y="1052" type="line"/>
    </contour>
    <contour>
      <point x="1072" y="1052" type="line"/>
      <point x="1072" y="0" type="line"/>
      <point x="886" y="0" type="line"/>
      <point x="886" y="1052" type="line"/>
    </contour>
  </outline>
</glyph>
<glyph name="Shha" format="2">
  <advance width="1638"/>
  <unicode hex="04BA"/>
  <outline>
    <contour>
      <point x="1181" y="424" type="line" smooth="yes"/>
      <point x="1181" y="602"/>
      <point x="1018" y="722"/>
      <point x="820" y="722" type="qcurve" smooth="yes"/>
      <point x="701" y="722"/>
      <point x="491" y="702"/>
      <point x="391" y="681" type="qcurve"/>
      <point x="391" y="839" type="line"/>
      <point x="525" y="861"/>
      <point x="710" y="880"/>
      <point x="835" y="880" type="qcurve" smooth="yes"/>
      <point x="1146" y="880"/>
      <point x="1373" y="649"/>
      <point x="1373" y="421" type="qcurve" smooth="yes"/>
      <point x="1373" y="0" type="line"/>
      <point x="1181" y="0" type="line"/>
    </contour>
    <contour>
      <point x="295" y="0" type="line"/>
      <point x="295" y="1456" type="line"/>
      <point x="487" y="1456" type="line"/>
      <point x="487" y="0" type="line"/>
    </contour>
  </outline>
</glyph>
<glyph name="horizontalbar" format="2">
  <advance width="906"/>
  <unicode hex="2015"/>
  <anchor x="446" y="708" name="_center"/>
  <outline>
    <contour>
      <point x="145" y="626" type="line"/>
      <point x="145" y="792" type="line"/>
      <point x="750" y="792" type="line"/>
      <point x="750" y="626" type="line"/>
    </contour>
  </outline>
</glyph>
<glyph name="minute" format="2">
  <advance width="904"/>
  <unicode hex="2032"/>
  <outline>
    <contour>
      <point x="225" y="964" type="line"/>
      <point x="520" y="1559" type="line"/>
      <point x="713" y="1452" type="line"/>
      <point x="356" y="884" type="line"/>
    </contour>
  </outline>
</glyph>
<glyph name="lira" format="2">
  <advance width="1274"/>
  <unicode hex="20A4"/>
  <outline>
    <contour>
      <point x="1153" y="0" type="line"/>
      <point x="161" y="0" type="line"/>
      <point x="161" y="160" type="line"/>
      <point x="217" y="160" type="line" smooth="yes"/>
      <point x="309" y="160"/>
      <point x="392" y="324"/>
      <point x="378" y="467" type="qcurve" smooth="yes"/>
      <point x="323" y="1039" type="line" smooth="yes"/>
      <point x="305" y="1228"/>
      <point x="505" y="1476"/>
      <point x="706" y="1476" type="qcurve" smooth="yes"/>
      <point x="896" y="1476"/>
      <point x="1109" y="1270"/>
      <point x="1109" y="1103" type="qcurve" smooth="yes"/>
      <point x="1109" y="1087" type="line"/>
      <point x="917" y="1087" type="line"/>
      <point x="917" y="1103" type="line" smooth="yes"/>
      <point x="917" y="1218"/>
      <point x="800" y="1319"/>
      <point x="708" y="1319" type="qcurve" smooth="yes"/>
      <point x="606" y="1319"/>
      <point x="493" y="1162"/>
      <point x="505" y="1039" type="qcurve" smooth="yes"/>
      <point x="556" y="508" type="line" smooth="yes"/>
      <point x="569" y="372"/>
      <point x="517" y="207"/>
      <point x="447" y="166" type="qcurve"/>
      <point x="1153" y="166" type="line"/>
    </contour>
    <contour>
      <point x="929" y="436" type="line"/>
      <point x="167" y="436" type="line"/>
      <point x="167" y="586" type="line"/>
      <point x="929" y="586" type="line"/>
    </contour>
    <contour>
      <point x="929" y="761" type="line"/>
      <point x="167" y="761" type="line"/>
      <point x="167" y="911" type="line"/>
      <point x="929" y="911" type="line"/>
    </contour>
  </outline>
</glyph>
<glyph name="peseta" format="2">
  <advance width="1931"/>
  <unicode hex="20A7"/>
  <outline>
    <contour>
      <point x="670" y="565" type="qcurve"/>
      <point x="385" y="565" type="line"/>
      <point x="385" y="717" type="line"/>
      <point x="670" y="717" type="line"/>
      <point x="843" y="717"/>
      <point x="947" y="899"/>
      <point x="947" y="1009" type="qcurve"/>
      <point x="947" y="1121"/>
      <point x="843" y="1304"/>
      <point x="670" y="1304" type="qcurve"/>
      <point x="477" y="1304" type="line"/>
      <point x="477" y="0" type="line"/>
      <point x="292" y="0" type="line"/>
      <point x="292" y="1456" type="line"/>
      <point x="670" y="1456" type="line"/>
      <point x="916" y="1456"/>
      <point x="1133" y="1202"/>
      <point x="1133" y="1011" type="qcurve"/>
      <point x="1133" y="819"/>
      <point x="916" y="565"/>
    </contour>
    <contour>
      <point x="1679" y="1026" type="line"/>
      <point x="1679" y="884" type="line"/>
      <point x="1035" y="884" type="line"/>
      <point x="1035" y="1026" type="line"/>
    </contour>
    <contour>
      <point x="1272" y="1345" type="line"/>
      <point x="1457" y="1345" type="line"/>
      <point x="1457" y="268" type="line"/>
      <point x="1457" y="185"/>
      <point x="1530" y="139"/>
      <point x="1576" y="139" type="qcurve" smooth="yes"/>
      <point x="1599" y="139"/>
      <point x="1669" y="141"/>
      <point x="1728" y="163" type="qcurve"/>
      <point x="1728" y="12" type="line"/>
      <point x="1679" y="-6"/>
      <point x="1571" y="-20"/>
      <point x="1522" y="-20" type="qcurve" smooth="yes"/>
      <point x="1420" y="-20"/>
      <point x="1272" y="107"/>
      <point x="1272" y="269" type="qcurve"/>
    </contour>
  </outline>
</glyph>
<glyph name="won" format="2">
  <advance width="2046"/>
  <unicode hex="20A9"/>
  <outline>
    <contour>
      <point x="598" y="-10" type="line"/>
      <point x="240" y="1456" type="line"/>
      <point x="414" y="1456" type="line"/>
      <point x="663" y="378" type="line"/>
      <point x="681" y="250" type="line"/>
      <point x="687" y="250" type="line"/>
      <point x="705" y="378" type="line" smooth="yes"/>
      <point x="923" y="1456" type="line"/>
      <point x="1121" y="1456" type="line"/>
      <point x="1369" y="378" type="line"/>
      <point x="1387" y="250" type="line"/>
      <point x="1393" y="250" type="line"/>
      <point x="1411" y="378" type="line" smooth="yes"/>
      <point x="1630" y="1456" type="line"/>
      <point x="1792" y="1456" type="line"/>
      <point x="1474" y="-10" type="line"/>
      <point x="1296" y="-10" type="line"/>
      <point x="1050" y="1100" type="line"/>
      <point x="1029" y="1228" type="line"/>
      <point x="1023" y="1228" type="line"/>
      <point x="1002" y="1100" type="line" smooth="yes"/>
      <point x="776" y="-10" type="line"/>
    </contour>
    <contour>
      <point x="1032" y="1007" type="line"/>
      <point x="1620" y="1007" type="line"/>
      <point x="1620" y="1017" type="line"/>
      <point x="1873" y="1019" type="line"/>
      <point x="1873" y="882" type="line"/>
      <point x="1620" y="880" type="line"/>
      <point x="1620" y="885" type="line"/>
      <point x="1032" y="885" type="line"/>
    </contour>
    <contour>
      <point x="173" y="880" type="line"/>
      <point x="173" y="1017" type="line"/>
      <point x="438" y="1017" type="line"/>
      <point x="438" y="1007" type="line"/>
      <point x="1032" y="1007" type="line"/>
      <point x="1032" y="885" type="line"/>
      <point x="438" y="885" type="line"/>
      <point x="438" y="880" type="line"/>
    </contour>
    <contour>
      <point x="1030" y="652" type="line"/>
      <point x="1541" y="652" type="line"/>
      <point x="1541" y="657" type="line"/>
      <point x="1834" y="659" type="line"/>
      <point x="1834" y="522" type="line"/>
      <point x="1541" y="520" type="line"/>
      <point x="1541" y="530" type="line"/>
      <point x="1030" y="530" type="line"/>
    </contour>
    <contour>
      <point x="204" y="520" type="line"/>
      <point x="204" y="657" type="line"/>
      <point x="529" y="657" type="line"/>
      <point x="529" y="652" type="line"/>
      <point x="1030" y="652" type="line"/>
      <point x="1030" y="530" type="line"/>
      <point x="529" y="530" type="line"/>
      <point x="529" y="520" type="line"/>
    </contour>
  </outline>
</glyph>
<glyph name="arrowup" format="2">
  <advance width="1536"/>
  <unicode hex="2191"/>
  <guideline x="676" y="924" angle="0" identifier="tThH8atjx1"/>
  <outline>
    <contour>
      <point x="681" y="0" type="line"/>
      <point x="681" y="1054" type="line"/>
      <point x="853" y="1054" type="line"/>
      <point x="853" y="0" type="line"/>
    </contour>
    <contour>
      <point x="325" y="749" type="line"/>
      <point x="742" y="1383" type="line"/>
      <point x="792" y="1383" type="line"/>
      <point x="1211" y="749" type="line"/>
      <point x="1163" y="715" type="line"/>
      <point x="766" y="981" type="line"/>
      <point x="371" y="715" type="line"/>
    </contour>
  </outline>
</glyph>
<glyph name="divisionslash" format="2">
  <advance width="917"/>
  <unicode hex="2215"/>
  <outline>
    <contour>
      <point x="63" y="-121" type="line"/>
      <point x="673" y="1536" type="line"/>
      <point x="831" y="1536" type="line"/>
      <point x="221" y="-121" type="line"/>
    </contour>
  </outline>
</glyph>
<glyph name="notequal" format="2">
  <advance width="1274"/>
  <unicode hex="2260"/>
  <outline>
    <contour>
      <point x="1005" y="1181" type="line"/>
      <point x="825" y="861" type="line"/>
      <point x="801" y="832" type="line"/>
      <point x="587" y="461" type="line"/>
      <point x="580" y="437" type="line"/>
      <point x="379" y="89" type="line"/>
      <point x="247" y="169" type="line"/>
      <point x="407" y="447" type="line"/>
      <point x="427" y="469" type="line"/>
      <point x="634" y="828" type="line"/>
      <point x="648" y="864" type="line"/>
      <point x="873" y="1261" type="line"/>
    </contour>
    <contour>
      <point x="182" y="384" type="line"/>
      <point x="182" y="547" type="line"/>
      <point x="1092" y="547" type="line"/>
      <point x="1092" y="384" type="line"/>
    </contour>
    <contour>
      <point x="182" y="779" type="line"/>
      <point x="182" y="942" type="line"/>
      <point x="1092" y="942" type="line"/>
      <point x="1092" y="779" type="line"/>
    </contour>
  </outline>
</glyph>
<glyph name="Zhe.bgr" format="2">
  <advance width="2185"/>
  <outline>
    <contour>
      <point x="105" y="0" type="line"/>
      <point x="781" y="890" type="line"/>
      <point x="900" y="756" type="line"/>
      <point x="336" y="0" type="line"/>
    </contour>
    <contour>
      <point x="994" y="0" type="line"/>
      <point x="994" y="1456" type="line"/>
      <point x="1186" y="1456" type="line"/>
      <point x="1186" y="0" type="line"/>
    </contour>
    <contour>
      <point x="1844" y="0" type="line"/>
      <point x="1280" y="756" type="line"/>
      <point x="1404" y="890" type="line"/>
      <point x="2080" y="0" type="line"/>
    </contour>
    <contour>
      <point x="141" y="1456" type="line"/>
      <point x="376" y="1456" type="line"/>
      <point x="1079" y="641" type="line"/>
      <point x="1079" y="399" type="line"/>
    </contour>
    <contour>
      <point x="1804" y="1456" type="line"/>
      <point x="2036" y="1456" type="line"/>
      <point x="1097" y="399" type="line"/>
      <point x="1097" y="636" type="line"/>
    </contour>
  </outline>
</glyph>
<glyph name="diagonalbarL" format="2">
  <advance width="991"/>
  <outline>
    <contour>
      <point x="205" y="446" type="line"/>
      <point x="125" y="584" type="line"/>
      <point x="789" y="995" type="line"/>
      <point x="870" y="860" type="line"/>
    </contour>
  </outline>
</glyph>
<glyph name="diagonalbaro" format="2">
  <advance width="762"/>
  <outline>
    <contour>
      <point x="37" y="-98" type="line"/>
      <point x="121" y="109" type="line"/>
      <point x="139" y="104" type="line"/>
      <point x="340" y="604" type="line"/>
      <point x="439" y="534" type="line"/>
      <point x="256" y="75" type="line"/>
      <point x="276" y="71" type="line"/>
      <point x="202" y="-103" type="line"/>
    </contour>
    <contour>
      <point x="543" y="1164" type="line"/>
      <point x="714" y="1161" type="line"/>
      <point x="636" y="968" type="line"/>
      <point x="615" y="973" type="line"/>
      <point x="439" y="534" type="line"/>
      <point x="340" y="604" type="line"/>
      <point x="499" y="1001" type="line"/>
      <point x="479" y="1007" type="line"/>
    </contour>
  </outline>
</glyph>
<glyph name="ghe.bgr" format="2">
  <advance width="1260"/>
  <outline>
    <contour>
      <point x="1055" y="310" type="line"/>
      <point x="1055" y="305" type="line" smooth="yes"/>
      <point x="1055" y="153"/>
      <point x="835" y="-30"/>
      <point x="625" y="-30" type="qcurve" smooth="yes"/>
      <point x="413" y="-30"/>
      <point x="205" y="147"/>
      <point x="205" y="285" type="qcurve" smooth="yes"/>
      <point x="205" y="427"/>
      <point x="390" y="576"/>
      <point x="560" y="616" type="qcurve" smooth="yes"/>
      <point x="730" y="656"/>
      <point x="846" y="729"/>
      <point x="846" y="792" type="qcurve" smooth="yes"/>
      <point x="846" y="852"/>
      <point x="744" y="930"/>
      <point x="635" y="930" type="qcurve" smooth="yes"/>
      <point x="525" y="930"/>
      <point x="420" y="844"/>
      <point x="420" y="769" type="qcurve" smooth="yes"/>
      <point x="420" y="760" type="line"/>
      <point x="235" y="760" type="line"/>
      <point x="235" y="765" type="line" smooth="yes"/>
      <point x="235" y="911"/>
      <point x="455" y="1082"/>
      <point x="635" y="1082" type="qcurve" smooth="yes"/>
      <point x="832" y="1082"/>
      <point x="1030" y="917"/>
      <point x="1030" y="793" type="qcurve" smooth="yes"/>
      <point x="1030" y="654"/>
      <point x="830" y="510"/>
      <point x="660" y="470" type="qcurve" smooth="yes"/>
      <point x="490" y="430"/>
      <point x="388" y="352"/>
      <point x="388" y="278" type="qcurve" smooth="yes"/>
      <point x="388" y="203"/>
      <point x="519" y="122"/>
      <point x="625" y="122" type="qcurve" smooth="yes"/>
      <point x="735" y="122"/>
      <point x="869" y="214"/>
      <point x="869" y="305" type="qcurve" smooth="yes"/>
      <point x="869" y="310" type="line"/>
    </contour>
  </outline>
</glyph>
<glyph name="hacyr-stroke" format="2">
  <advance width="1228"/>
  <outline>
    <contour>
      <point x="281" y="465" type="line"/>
      <point x="281" y="610" type="line"/>
      <point x="947" y="610" type="line"/>
      <point x="947" y="465" type="line"/>
    </contour>
  </outline>
</glyph>
<glyph name="horizontalbarlc" format="2">
  <advance width="907"/>
  <anchor x="453" y="729" name="_center"/>
  <outline>
    <contour>
      <point x="432" y="656" type="line"/>
      <point x="150" y="656" type="line"/>
      <point x="161" y="802" type="line"/>
      <point x="472" y="802" type="line"/>
      <point x="757" y="802" type="line"/>
      <point x="757" y="656" type="line"/>
    </contour>
  </outline>
</glyph>
<glyph name="six.prop" format="2">
  <advance width="1386"/>
  <outline>
    <contour>
      <point x="205" y="614" type="qcurve" smooth="yes"/>
      <point x="205" y="644" type="line" smooth="yes"/>
      <point x="205" y="1024"/>
      <point x="617" y="1486"/>
      <point x="997" y="1486" type="qcurve" smooth="yes"/>
      <point x="1017" y="1486" type="line"/>
      <point x="1017" y="1328" type="line"/>
      <point x="997" y="1328" type="line" smooth="yes"/>
      <point x="717" y="1328"/>
      <point x="393" y="1004"/>
      <point x="393" y="654" type="qcurve" smooth="yes"/>
      <point x="393" y="604" type="line" smooth="yes"/>
      <point x="393" y="344"/>
      <point x="577" y="128"/>
      <point x="717" y="128" type="qcurve" smooth="yes"/>
      <point x="857" y="128"/>
      <point x="1011" y="304"/>
      <point x="1011" y="464" type="qcurve" smooth="yes"/>
      <point x="1011" y="624"/>
      <point x="857" y="798"/>
      <point x="717" y="798" type="qcurve" smooth="yes"/>
      <point x="587" y="798"/>
      <point x="387" y="624"/>
      <point x="387" y="464" type="qcurve"/>
      <point x="317" y="464" type="line"/>
      <point x="317" y="684"/>
      <point x="557" y="956"/>
      <point x="757" y="956" type="qcurve" smooth="yes"/>
      <point x="957" y="956"/>
      <point x="1201" y="684"/>
      <point x="1201" y="464" type="qcurve" smooth="yes"/>
      <point x="1201" y="244"/>
      <point x="927" y="-30"/>
      <point x="717" y="-30" type="qcurve" smooth="yes"/>
      <point x="507" y="-30"/>
      <point x="205" y="274"/>
    </contour>
  </outline>
</glyph>
<glyph name="soft.bgr" format="2">
  <advance width="1338"/>
  <outline>
    <contour>
      <point x="273" y="351" type="qcurve" smooth="yes"/>
      <point x="273" y="1052" type="line"/>
      <point x="459" y="1052" type="line"/>
      <point x="459" y="351" type="line" smooth="yes"/>
      <point x="459" y="252"/>
      <point x="571" y="123"/>
      <point x="711" y="123" type="qcurve" smooth="yes"/>
      <point x="853" y="123"/>
      <point x="967" y="252"/>
      <point x="967" y="351" type="qcurve" smooth="yes"/>
      <point x="967" y="447"/>
      <point x="862" y="573"/>
      <point x="731" y="573" type="qcurve" smooth="yes"/>
      <point x="369" y="573" type="line"/>
      <point x="369" y="718" type="line"/>
      <point x="731" y="718" type="line" smooth="yes"/>
      <point x="934" y="718"/>
      <point x="1153" y="521"/>
      <point x="1153" y="351" type="qcurve" smooth="yes"/>
      <point x="1153" y="177"/>
      <point x="924" y="-30"/>
      <point x="711" y="-30" type="qcurve" smooth="yes"/>
      <point x="500" y="-30"/>
      <point x="273" y="177"/>
    </contour>
  </outline>
</glyph>
<glyph name="three.prop" format="2">
  <advance width="1301"/>
  <outline>
    <contour>
      <point x="142" y="380" type="qcurve" smooth="yes"/>
      <point x="142" y="390" type="line"/>
      <point x="328" y="390" type="line"/>
      <point x="328" y="380" type="line" smooth="yes"/>
      <point x="328" y="260"/>
      <point x="488" y="128"/>
      <point x="620" y="128" type="qcurve" smooth="yes"/>
      <point x="752" y="128"/>
      <point x="910" y="260"/>
      <point x="910" y="400" type="qcurve" smooth="yes"/>
      <point x="910" y="540"/>
      <point x="732" y="682"/>
      <point x="582" y="682" type="qcurve" smooth="yes"/>
      <point x="467" y="682" type="line"/>
      <point x="467" y="836" type="line"/>
      <point x="572" y="836" type="line" smooth="yes"/>
      <point x="710" y="836"/>
      <point x="860" y="970"/>
      <point x="860" y="1090" type="qcurve" smooth="yes"/>
      <point x="860" y="1210"/>
      <point x="730" y="1328"/>
      <point x="620" y="1328" type="qcurve" smooth="yes"/>
      <point x="510" y="1328"/>
      <point x="368" y="1210"/>
      <point x="368" y="1100" type="qcurve" smooth="yes"/>
      <point x="368" y="1090" type="line"/>
      <point x="182" y="1090" type="line"/>
      <point x="182" y="1100" type="line" smooth="yes"/>
      <point x="182" y="1260"/>
      <point x="430" y="1486"/>
      <point x="620" y="1486" type="qcurve" smooth="yes"/>
      <point x="810" y="1486"/>
      <point x="1052" y="1270"/>
      <point x="1052" y="1100" type="qcurve" smooth="yes"/>
      <point x="1052" y="1000"/>
      <point x="942" y="816"/>
      <point x="826" y="766" type="qcurve"/>
      <point x="826" y="762" type="line"/>
      <point x="952" y="730"/>
      <point x="1104" y="540"/>
      <point x="1104" y="401" type="qcurve" smooth="yes"/>
      <point x="1104" y="200"/>
      <point x="830" y="-30"/>
      <point x="620" y="-30" type="qcurve" smooth="yes"/>
      <point x="410" y="-30"/>
      <point x="142" y="200"/>
    </contour>
  </outline>
</glyph>
<glyph name="u-stroke" format="2">
  <advance width="1192"/>
  <outline>
    <contour>
      <point x="263" y="-145" type="line"/>
      <point x="263" y="0" type="line"/>
      <point x="929" y="0" type="line"/>
      <point x="929" y="-145" type="line"/>
    </contour>
  </outline>
</glyph>
<glyph name="ve.bgr" format="2">
  <advance width="1324"/>
  <outline>
    <contour>
      <point x="250" y="400" type="qcurve" smooth="yes"/>
      <point x="250" y="1070" type="line" smooth="yes"/>
      <point x="250" y="1258"/>
      <point x="476" y="1476"/>
      <point x="668" y="1476" type="qcurve" smooth="yes"/>
      <point x="855" y="1476"/>
      <point x="1072" y="1264"/>
      <point x="1072" y="1080" type="qcurve" smooth="yes"/>
      <point x="1072" y="994"/>
      <point x="968" y="815"/>
      <point x="854" y="766" type="qcurve"/>
      <point x="854" y="762" type="line"/>
      <point x="973" y="736"/>
      <point x="1124" y="568"/>
      <point x="1124" y="421" type="qcurve" smooth="yes"/>
      <point x="1124" y="201"/>
      <point x="887" y="-30"/>
      <point x="687" y="-30" type="qcurve" smooth="yes"/>
      <point x="474" y="-30"/>
      <point x="250" y="201"/>
    </contour>
    <contour>
      <point x="436" y="400" type="line" smooth="yes"/>
      <point x="436" y="257"/>
      <point x="563" y="122"/>
      <point x="687" y="122" type="qcurve" smooth="yes"/>
      <point x="811" y="122"/>
      <point x="938" y="257"/>
      <point x="938" y="420" type="qcurve" smooth="yes"/>
      <point x="938" y="552"/>
      <point x="789" y="683"/>
      <point x="649" y="688" type="qcurve" smooth="yes"/>
      <point x="356" y="688" type="line"/>
      <point x="356" y="830" type="line"/>
      <point x="640" y="830" type="line" smooth="yes"/>
      <point x="755" y="830"/>
      <point x="888" y="961"/>
      <point x="888" y="1070" type="qcurve" smooth="yes"/>
      <point x="888" y="1198"/>
      <point x="779" y="1324"/>
      <point x="668" y="1324" type="qcurve" smooth="yes"/>
      <point x="556" y="1324"/>
      <point x="436" y="1193"/>
      <point x="436" y="1070" type="qcurve" smooth="yes"/>
    </contour>
  </outline>
</glyph>
